<svg height="800" viewBox="0 0 35 35" width="800" xmlns="http://www.w3.org/2000/svg"><path d="m18.44 34.68a18.22 18.22 0 0 1 -2.94-.24 18.18 18.18 0 0 1 -15-20.86 18.06 18.06 0 0 1 9.09-12.95 2.42 2.42 0 0 1 2.61.16 2.39 2.39 0 0 1 1 2.41l-1.3-.1 1.23.22a15.66 15.66 0 0 0 10.21 17.68 15.82 15.82 0 0 0 8.47.53 2.44 2.44 0 0 1 2.66 3.47 18.18 18.18 0 0 1 -16.03 9.68zm-7.77-31.79a15.67 15.67 0 0 0 -5 22.77 15.66 15.66 0 0 0 26.51-1.66 18.49 18.49 0 0 1 -9.65-.64 18.18 18.18 0 0 1 -11.86-20.47z"/></svg>