<?xml version="1.0" encoding="iso-8859-1"?>
<!-- Uploaded to: SVG Repo, www.svgrepo.com, Generator: SVG Repo Mixer Tools -->
<svg fill="#000000" height="800px" width="800px" version="1.1" id="Layer_1" xmlns="http://www.w3.org/2000/svg" xmlns:xlink="http://www.w3.org/1999/xlink" 
	 viewBox="0 0 512 512" xml:space="preserve">
<g>
	<g>
		<path d="M465.6,426.667H347.621l39.121-46.183c3.075-3.575,2.658-9.225-0.925-12.292c-3.567-3.067-8.958-2.8-12.025,0.792
			l-51.2,59.667c-2.742,3.192-2.742,7.875,0,11.067l51.2,59.717c1.683,1.975,4.075,2.975,6.475,2.975
			c1.967,0,3.942-0.679,5.55-2.063c3.583-3.067,4-7.919,0.925-11.494l-39.121-45.119H465.6c4.717,0,8.533-3.817,8.533-8.533
			S470.317,426.667,465.6,426.667z"/>
	</g>
</g>
<g>
	<g>
		<path d="M405.825,0H64.575C50.433,0,37.867,10.4,37.867,24.5v460.867c0,14.1,12.542,26.633,26.65,26.633h257.158
			c4.717,0,8.533-3.817,8.533-8.533s-3.817-8.533-8.533-8.533H64.517c-4.7,0-9.583-4.883-9.583-9.567V24.5
			c0-4.683,4.917-7.433,9.642-7.433h341.25c4.65,0,7.508,2.808,7.508,7.4V323.2c0,4.717,3.817,8.533,8.533,8.533
			c4.717,0,8.533-3.817,8.533-8.533V24.467C430.4,10.392,419.967,0,405.825,0z"/>
	</g>
</g>
<g>
	<g>
		<path d="M277.867,59.733h-85.333c-4.717,0-8.533,3.817-8.533,8.533c0,4.717,3.817,8.533,8.533,8.533h85.333
			c4.717,0,8.533-3.817,8.533-8.533C286.4,63.55,282.583,59.733,277.867,59.733z"/>
	</g>
</g>
<g>
	<g>
		<path d="M354.667,119.467H115.733c-4.717,0-8.533,3.817-8.533,8.533c0,4.717,3.817,8.533,8.533,8.533h238.933
			c4.717,0,8.533-3.817,8.533-8.533C363.2,123.283,359.383,119.467,354.667,119.467z"/>
	</g>
</g>
<g>
	<g>
		<path d="M354.667,179.2H115.733c-4.717,0-8.533,3.817-8.533,8.533c0,4.717,3.817,8.533,8.533,8.533h238.933
			c4.717,0,8.533-3.817,8.533-8.533C363.2,183.017,359.383,179.2,354.667,179.2z"/>
	</g>
</g>
<g>
	<g>
		<path d="M354.667,238.933H115.733c-4.717,0-8.533,3.817-8.533,8.533c0,4.717,3.817,8.533,8.533,8.533h238.933
			c4.717,0,8.533-3.817,8.533-8.533C363.2,242.75,359.383,238.933,354.667,238.933z"/>
	</g>
</g>
<g>
	<g>
		<path d="M354.667,298.667H115.733c-4.717,0-9.6,2.75-9.6,7.467v128c0,4.717,4.883,9.6,9.6,9.6H286.4
			c4.717,0,8.533-3.817,8.533-8.533s-3.817-8.533-8.533-8.533H123.2V315.733h221.867V348.8c0,4.717,3.817,8.533,8.533,8.533
			c4.717,0,8.533-3.817,8.533-8.533v-42.667C362.133,301.417,359.383,298.667,354.667,298.667z"/>
	</g>
</g>
</svg>