<svg fill="none" height="800" viewBox="0 -12 157 157" width="800" xmlns="http://www.w3.org/2000/svg" xmlns:xlink="http://www.w3.org/1999/xlink"><clipPath id="a"><path d="m.777344 0h156v133h-156z"/></clipPath><g clip-path="url(#a)" fill="#000"><path d="m126.506 116.642c-.423 1.386-.725 2.563-1.138 3.698-2.623 7.219-8.204 10.738-15.374 12.156-5.717 1.143-11.6526.003-16.543-3.178-4.7939-2.967-7.1048-7.445-7.5735-13.26-.9463-.081-1.8965-.227-2.8481-.235-20.7019-.162-41.4045-.274-62.1059-.483-4.5266-.046-9.0558-.352-13.57071-.702-1.21313-.072-2.37147-.531-3.30577-1.31-.77131-.879-1.21706-1.997-1.26226-3.167-.08091-1.362 1.00592-2.14 2.31412-2.428.64442-.145 1.30121-.227 1.9613-.246 8.18262-.16 16.36452-.349 24.54772-.44 15.609-.173 31.2178-.313 46.8263-.421 3.3129-.027 6.6265-.004 9.5413-.004 2.3141-2.706 4.1984-5.337 6.5047-7.5207 5.6508-5.3505 12.4688-6.4924 19.7558-4.4208 5.095 1.4487 8.773 4.6284 9.839 10.1755.103.538.332 1.054.656 2.057 1.042 0 2.218-.014 3.394 0 6.974.092 13.949.148 20.921.321 1.543.046 3.07.324 4.531.824.907.295 1.688.889 2.216 1.685.529.795.775 1.746.697 2.699.02.9-.255 1.782-.781 2.512-.527.73-1.277 1.267-2.137 1.53-1.472.452-3.007.668-4.547.64-6.31-.092-12.617-.316-18.926-.48-1.099-.026-2.2-.002-3.593-.002zm-10.02-4.541c-.016-3.244-.777-6.473-2.271-8.46-.577-.762-1.392-1.307-2.316-1.549-6.53-1.316-13.5104 3.653-15.1843 9.454-1.4532 5.038.1405 8.225 5.0493 10.021 8.07 2.953 14.764-1.348 14.722-9.465z"/><path d="m59.3029 59.9005c3.1893 0 6.0542.07 8.9156-.0118 13.5067-.3862 27.0152-.7985 40.5245-1.2367 12.401-.4178 24.798-.9257 37.198-1.3701 1.546-.1117 3.098-.0807 4.639.0922 1.115.1199 2.152.633 2.925 1.448s1.232 1.8786 1.295 3.0012c.022 2.0262-1.416 3.7589-3.845 4.4116-1.073.2647-2.172.4016-3.276.4062-20.046.4476-40.091.8829-60.1346 1.3059-8.971.2025-17.94.4821-26.91.7364-.5411.0156-1.0803.1207-1.8992.2161-2.1167 10.2818-9.4163 14.5975-18.9841 14.6624-8.5444.061-15.0219-4.1665-17.758-12.8841-4.3143-.1947-8.507-.3296-12.69112-.6002-1.54045-.1154-3.06467-.3918-4.54793-.8246-.65739-.1609-1.23542-.5534-1.6294-1.1048-.39397-.5515-.57784-1.2262-.51834-1.9023-.00342-.6786.24343-1.3352.69321-1.843.44977-.5078 1.07079-.8311 1.74389-.9082 1.19617-.2123 2.41039-.3053 3.62486-.2771 4.30783-.0305 8.61623-.0124 12.96673-.0124.4532-1.3261.8176-2.2329 1.0746-3.1691.989-3.6715 3.0224-6.9755 5.8522-9.5088 1.8283-1.5929 4.0385-2.682 6.4135-3.1602 3.4864-.6013 7.0282-.816 10.5614-.6402 6.6711.2348 10.7452 4.0965 12.9409 10.1859.334.9336.5327 1.9159.8253 2.9877zm-20.28-3.8703c-1.3095.2946-3.6184.2738-5.2917 1.2976-4.0256 2.4654-3.9201 11.7287.046 14.3595 3.6145 2.4005 7.5126 2.2928 11.3556.4859 3.4572-1.6252 3.8327-5.0605 3.8936-8.1551.0861-4.3773-1.0014-7.2163-6.5928-7.6672-.8758-.0714-1.7562-.1656-3.4107-.3207z"/><path d="m97.708 23.2841c-1.0104 0-1.7768-.0058-2.5426 0-26.9071.2163-53.8136.4302-80.7185.6421-2.3247.0182-4.64934-.0197-6.97406-.114-1.21713-.0418-2.42762-.1991-3.61518-.4698-1.92378-.4541-3.118683-1.8307-3.063663-3.4248-.008368-.7888.261083-1.5553.760973-2.1646.49988-.6092 1.19816-1.0223 1.97193-1.1664 1.28094-.3308 2.58985-.541 3.90975-.6285 28.52665-1.836 57.09855-1.8947 85.66455-2.1672 1.6512-.0155 3.3012 0 5.0217 0 .6124-1.2878 1.1529-2.3581 1.6364-3.4539 1.1497-2.80791 3.2777-5.10211 5.9877-6.4561 3.985-1.92623 8.141-3.495418 12.622-3.8068326 7.712-.5365414 12.403 2.5781726 14.981 9.8568126.324.92252.619 1.85742 1.019 3.06942 3.993-.1888 7.949-.4133 11.907-.5437 1.43-.0925 2.866-.0077 4.275.2529.939.1788 1.792.6648 2.425 1.3817.634.7171 1.012 1.6245 1.075 2.58.064.9555-.191 1.9053-.725 2.7-.532.7947-1.314 1.3895-2.221 1.6913-1.355.4719-2.766.764-4.197.8683-4.289.3821-8.588.6519-13.076.9802-2.654 9.6019-9.608 13.5172-18.941 13.2623-8.34-.2284-14.681-3.9133-17.183-12.8892zm8.141-5.0021c-.702 4.4585 3.644 9.2431 8.302 9.0887 6.949-.2303 11.092-4.1439 11.089-9.3491 0-5.852-2.756-9.00803-9.21-9.30842-6.126-.28481-10.131 3.67792-10.181 9.56882z"/></g></svg>